# xmcd
#
# Track frame offsets:
#	150
#	15770
#	32426
#	51257
#	67120
#	82231
#	96336
#	111956
#	128610
#	147439
#	163303
#	178413
#
# Disc length: 2566 seconds
#
# Revision: 1
# Processed by: cddbd v1.5.2PL0 Copyright (c) Steve Scherf et al.
# Submitted via: audiograbber 1.83.01
#
DISCID=aa0a040c
DTITLE=Various Artist - CB20029 Hot Hits Vol. 29
DYEAR=1900
DGENRE=Country
TTITLE0=Mark Wills - I Do (Cherish You) (Vocals)
TTITLE1=Lila McCann - Almost Over You (Vocals)
TTITLE2=Ricochet - Connected At The Heart (Vocals)
TTITLE3=Jim Collins - My First, Last, One and Only (Vocals)
TTITLE4=Faith Hill - This Kiss
TTITLE5=Dean Miller - Wake Up And Smell The Whiskey (Vocals)
TTITLE6=Mark Wills - I Do (Cherish You
TTITLE7=Lila McCann - Almost Over You
TTITLE8=Ricochet - Connected At The Heart
TTITLE9=Jim Collins - My First, Last, One and Only
TTITLE10=Faith Hill - This Kiss
TTITLE11=Dean Miller - Wake Up And Smell The Whiskey
EXTD=
EXTT0=
EXTT1=
EXTT2=
EXTT3=
EXTT4=
EXTT5=
EXTT6=
EXTT7=
EXTT8=
EXTT9=
EXTT10=
EXTT11=
PLAYORDER=
